name ./resultDataOpenSim/trcMotMarkerGrf/sub06/grf-13-01.mot
datacolumns 19
datarows 30
range 1.65600000 1.77200000
endheader

                time	     ground_force_vx	     ground_force_vy	     ground_force_vz	     ground_force_px	     ground_force_py	     ground_force_pz	   l_ground_force_vx	   l_ground_force_vy	   l_ground_force_vz	   l_ground_force_px	   l_ground_force_py	   l_ground_force_pz	     ground_torque_x	     ground_torque_y	     ground_torque_z	   l_ground_torque_x	   l_ground_torque_y	   l_ground_torque_z	
          1.65600000	        153.54223387	        586.26212302	        -22.46732749	          0.85769435	          0.00000000	          0.04211679	          0.00000000	          0.00000000	          0.00000000	          0.00000000	          0.00000000	          0.00000000	          0.00000000	          1.27290105	          0.00000000	          0.00000000	          0.00000000	          0.00000000	
          1.66000000	        157.83846313	        595.04808630	        -21.52118062	          0.86844788	          0.00000000	          0.03886845	          0.00000000	          0.00000000	          0.00000000	          0.00000000	          0.00000000	          0.00000000	          0.00000000	          1.64443132	          0.00000000	          0.00000000	          0.00000000	          0.00000000	
          1.66400000	        162.05935826	        605.76451187	        -20.57069912	          0.88222474	          0.00000000	          0.03480490	          0.00000000	          0.00000000	          0.00000000	          0.00000000	          0.00000000	          0.00000000	          0.00000000	          2.10805399	          0.00000000	          0.00000000	          0.00000000	          0.00000000	
          1.66800000	        166.34662084	        616.42846710	        -19.69243956	          0.89767100	          0.00000000	          0.03030878	          0.00000000	          0.00000000	          0.00000000	          0.00000000	          0.00000000	          0.00000000	          0.00000000	          2.64210509	          0.00000000	          0.00000000	          0.00000000	          0.00000000	
          1.67200000	        170.75447127	        623.60277317	        -18.99418508	          0.91259109	          0.00000000	          0.02597707	          0.00000000	          0.00000000	          0.00000000	          0.00000000	          0.00000000	          0.00000000	          0.00000000	          3.20865678	          0.00000000	          0.00000000	          0.00000000	          0.00000000	
          1.67600000	        175.09882676	        623.29989910	        -18.53912419	          0.92491439	          0.00000000	          0.02237432	          0.00000000	          0.00000000	          0.00000000	          0.00000000	          0.00000000	          0.00000000	          0.00000000	          3.75933883	          0.00000000	          0.00000000	          0.00000000	          0.00000000	
          1.68000000	        178.79245542	        612.54727815	        -18.21274145	          0.93380517	          0.00000000	          0.01972720	          0.00000000	          0.00000000	          0.00000000	          0.00000000	          0.00000000	          0.00000000	          0.00000000	          4.24403243	          0.00000000	          0.00000000	          0.00000000	          0.00000000	
          1.68400000	        180.72322542	        590.50904014	        -17.73947274	          0.93954951	          0.00000000	          0.01793809	          0.00000000	          0.00000000	          0.00000000	          0.00000000	          0.00000000	          0.00000000	          0.00000000	          4.61959294	          0.00000000	          0.00000000	          0.00000000	          0.00000000	
          1.68800000	        179.47631681	        558.32105098	        -16.85906651	          0.94292623	          0.00000000	          0.01680306	          0.00000000	          0.00000000	          0.00000000	          0.00000000	          0.00000000	          0.00000000	          0.00000000	          4.85605833	          0.00000000	          0.00000000	          0.00000000	          0.00000000	
          1.69200000	        173.97309140	        517.99988634	        -15.40411754	          0.94476354	          0.00000000	          0.01614846	          0.00000000	          0.00000000	          0.00000000	          0.00000000	          0.00000000	          0.00000000	          0.00000000	          4.93891111	          0.00000000	          0.00000000	          0.00000000	          0.00000000	
          1.69600000	        163.99327521	        471.57232828	        -13.25820944	          0.94569825	          0.00000000	          0.01581720	          0.00000000	          0.00000000	          0.00000000	          0.00000000	          0.00000000	          0.00000000	          0.00000000	          4.86775375	          0.00000000	          0.00000000	          0.00000000	          0.00000000	
          1.70000000	        150.07159899	        421.11736927	        -10.39603944	          0.94623502	          0.00000000	          0.01564730	          0.00000000	          0.00000000	          0.00000000	          0.00000000	          0.00000000	          0.00000000	          0.00000000	          4.65341699	          0.00000000	          0.00000000	          0.00000000	          0.00000000	
          1.70400000	        132.97719506	        369.22957495	         -6.94887214	          0.94704500	          0.00000000	          0.01545252	          0.00000000	          0.00000000	          0.00000000	          0.00000000	          0.00000000	          0.00000000	          0.00000000	          4.31535529	          0.00000000	          0.00000000	          0.00000000	          0.00000000	
          1.70800000	        113.41384312	        318.90518971	         -3.16389206	          0.94913094	          0.00000000	          0.01498550	          0.00000000	          0.00000000	          0.00000000	          0.00000000	          0.00000000	          0.00000000	          0.00000000	          3.87980511	          0.00000000	          0.00000000	          0.00000000	          0.00000000	
          1.71200000	         92.20113308	        272.66228760	          0.65853603	          0.95362766	          0.00000000	          0.01397421	          0.00000000	          0.00000000	          0.00000000	          0.00000000	          0.00000000	          0.00000000	          0.00000000	          3.37834182	          0.00000000	          0.00000000	          0.00000000	          0.00000000	
          1.71600000	         70.54075614	        231.72720792	          4.20382268	          0.96127700	          0.00000000	          0.01221606	          0.00000000	          0.00000000	          0.00000000	          0.00000000	          0.00000000	          0.00000000	          0.00000000	          2.84596687	          0.00000000	          0.00000000	          0.00000000	          0.00000000	
          1.72000000	         49.89061286	        196.07226220	          7.20871185	          0.97225942	          0.00000000	          0.00958567	          0.00000000	          0.00000000	          0.00000000	          0.00000000	          0.00000000	          0.00000000	          0.00000000	          2.31760597	          0.00000000	          0.00000000	          0.00000000	          0.00000000	
          1.72400000	         31.53486488	        165.16820791	          9.50595641	          0.98672837	          0.00000000	          0.00594763	          0.00000000	          0.00000000	          0.00000000	          0.00000000	          0.00000000	          0.00000000	          0.00000000	          1.82292475	          0.00000000	          0.00000000	          0.00000000	          0.00000000	
          1.72800000	         16.32831120	        138.65829250	         10.99381882	          1.00512746	          0.00000000	          0.00117479	          0.00000000	          0.00000000	          0.00000000	          0.00000000	          0.00000000	          0.00000000	          0.00000000	          1.38111024	          0.00000000	          0.00000000	          0.00000000	          0.00000000	
          1.73200000	          4.77894523	        116.40556601	         11.59953098	          1.02762520	          0.00000000	         -0.00477591	          0.00000000	          0.00000000	          0.00000000	          0.00000000	          0.00000000	          0.00000000	          0.00000000	          0.99787880	          0.00000000	          0.00000000	          0.00000000	          0.00000000	
          1.73600000	         -2.83666952	         98.11395524	         11.29674928	          1.05326444	          0.00000000	         -0.01176265	          0.00000000	          0.00000000	          0.00000000	          0.00000000	          0.00000000	          0.00000000	          0.00000000	          0.66592157	          0.00000000	          0.00000000	          0.00000000	          0.00000000	
          1.74000000	         -6.56459146	         83.13062817	         10.13193917	          1.08041245	          0.00000000	         -0.01949560	          0.00000000	          0.00000000	          0.00000000	          0.00000000	          0.00000000	          0.00000000	          0.00000000	          0.36843981	          0.00000000	          0.00000000	          0.00000000	          0.00000000	
          1.74400000	         -6.94228113	         70.69092590	          8.22495194	          1.10774729	          0.00000000	         -0.02761248	          0.00000000	          0.00000000	          0.00000000	          0.00000000	          0.00000000	          0.00000000	          0.00000000	          0.08462856	          0.00000000	          0.00000000	          0.00000000	          0.00000000	
          1.74800000	         -5.00857149	         60.27409131	          5.77260508	          1.13431635	          0.00000000	         -0.03567739	          0.00000000	          0.00000000	          0.00000000	          0.00000000	          0.00000000	          0.00000000	          0.00000000	         -0.20396717	          0.00000000	          0.00000000	          0.00000000	          0.00000000	
          1.75200000	         -2.09537508	         51.65148961	          3.05440730	          1.15903386	          0.00000000	         -0.04322227	          0.00000000	          0.00000000	          0.00000000	          0.00000000	          0.00000000	          0.00000000	          0.00000000	         -0.50719760	          0.00000000	          0.00000000	          0.00000000	          0.00000000	
          1.75600000	          0.48522402	         44.63879432	          0.40169133	          1.18115121	          0.00000000	         -0.04992626	          0.00000000	          0.00000000	          0.00000000	          0.00000000	          0.00000000	          0.00000000	          0.00000000	         -0.82138807	          0.00000000	          0.00000000	          0.00000000	          0.00000000	
          1.76000000	          1.72213768	         38.91363845	         -1.85910383	          1.20150052	          0.00000000	         -0.05584588	          0.00000000	          0.00000000	          0.00000000	          0.00000000	          0.00000000	          0.00000000	          0.00000000	         -1.12711307	          0.00000000	          0.00000000	          0.00000000	          0.00000000	
          1.76400000	          1.08071753	         34.11185552	         -3.44634135	          1.22234283	          0.00000000	         -0.06137396	          0.00000000	          0.00000000	          0.00000000	          0.00000000	          0.00000000	          0.00000000	          0.00000000	         -1.39064837	          0.00000000	          0.00000000	          0.00000000	          0.00000000	
          1.76800000	         -1.45229290	         30.01265082	         -4.15028197	          1.24510024	          0.00000000	         -0.06684260	          0.00000000	          0.00000000	          0.00000000	          0.00000000	          0.00000000	          0.00000000	          0.00000000	         -1.56952347	          0.00000000	          0.00000000	          0.00000000	          0.00000000	
          1.77200000	         -5.44438946	         26.53096744	         -3.86664686	          1.26848451	          0.00000000	         -0.07220397	          0.00000000	          0.00000000	          0.00000000	          0.00000000	          0.00000000	          0.00000000	          0.00000000	         -1.62199175	          0.00000000	          0.00000000	          0.00000000	          0.00000000	
